<svg id="Layer_1" data-name="Layer 1" xmlns="http://www.w3.org/2000/svg" viewBox="0 0 54 54"><path d="M0,27c0-4.66,0-9.32,0-14a14.12,14.12,0,0,1,1.44-6.7,11.2,11.2,0,0,1,8-5.92A21,21,0,0,1,13.61,0c9.11,0,18.22,0,27.32,0a14.48,14.48,0,0,1,6,1.1,11.16,11.16,0,0,1,6.67,8.3A20.87,20.87,0,0,1,54,13.71q0,13.58,0,27.15a15.05,15.05,0,0,1-.86,5.44,11.15,11.15,0,0,1-8.58,7.28,20.85,20.85,0,0,1-4.32.38c-9,0-18.09,0-27.13,0a14.38,14.38,0,0,1-6.21-1.17A11.09,11.09,0,0,1,.37,44.5,20.31,20.31,0,0,1,0,40.38Q0,33.71,0,27Zm20,1.75c-.74-.15-.76-.14-1,.39l-.69,1.55a2.23,2.23,0,0,1-2.06,1.42c-1.29,0-2.57,0-3.85,0-.95,0-1.32-.45-1.32-1.4,0-1.36,0-2.73,0-4.09a4.63,4.63,0,0,1,.05-.51c1,0,2,0,2.93,0,.73,0,1,.26,1.18,1,.1.36.19.72.28,1.09h.94V22.72h-.89c-.12.49-.24,1-.36,1.42a.83.83,0,0,1-.82.74L11.7,25a4.55,4.55,0,0,1-.53,0,40.37,40.37,0,0,1,.05-5.85c.19,0,.39,0,.6,0,1.39,0,2.78,0,4.16,0a1.46,1.46,0,0,1,1.56,1A15.16,15.16,0,0,1,18,21.58c.19.69.22.71,1,.53l.27-4.32a118.43,118.43,0,0,1-12.77.13v.84a1.19,1.19,0,0,0,.21.1,3.43,3.43,0,0,0,.44.09c1.39.26,1.49.36,1.49,1.75,0,3.3,0,6.6,0,9.9,0,.21,0,.41,0,.62a.86.86,0,0,1-.75.88c-.35.08-.7.14-1,.2a.37.37,0,0,0-.36.43c0,.18,0,.36.06.52h13Zm16.72,5.58c-.15.82-.28,1.56-.44,2.3s-.13.79.59,1a3.65,3.65,0,0,0,.67.17A4.69,4.69,0,0,0,42.24,36a12,12,0,0,0,1.67-2.87c1.14-2.67,2.28-5.33,3.39-8A1.83,1.83,0,0,1,48.46,24c.61-.22.6-.25.42-.93h-4c-.15.68-.15.68.49.91.8.28.94.56.62,1.32q-1.08,2.61-2.18,5.23c-.07.16-.16.32-.3.6L43.08,30c-.61-1.66-1.22-3.31-1.82-5-.23-.65-.06-.93.6-1.12l.66-.17V23h-5.1c-.1.61-.11.73.16.79.73.16,1,.74,1.21,1.33,1,2.44,2,4.89,3,7.34.58,1.44.55,1.54-.44,2.74a3,3,0,0,1-.61.63,5.15,5.15,0,0,1-1.26.68c-1,.29-1.45.11-1.6-1,0-.29-.1-.58-.16-.86a3.35,3.35,0,0,0-.14-.38ZM36.2,23.17a8.65,8.65,0,0,0-3.83-.39,4.8,4.8,0,0,0-1.27.35,2.77,2.77,0,0,0-.53,4.75,9.88,9.88,0,0,0,1.08.64c.49.25,1,.43,1.49.7a4.61,4.61,0,0,1,1.11.8,1.51,1.51,0,0,1-.38,2.37,2.24,2.24,0,0,1-3.09-1.15l-.54-1.33a3.25,3.25,0,0,0-.42,0,2.52,2.52,0,0,0-.37.05v3c.71.15,1.41.36,2.13.46A5.78,5.78,0,0,0,35,33a2.88,2.88,0,0,0,.5-4.83,9,9,0,0,0-1.23-.76c-.54-.28-1.11-.49-1.65-.78a3.88,3.88,0,0,1-1-.74,1.26,1.26,0,0,1,.62-2.1,2.57,2.57,0,0,1,1.73,0,1,1,0,0,1,.69.67c.09.31.19.6.3.9.2.59.24.61,1,.41Zm-14,1.19c0,.28,0,.48,0,.69,0,1.13,0,2.26,0,3.4,0,.88,0,1.76,0,2.64a2.36,2.36,0,0,0,.77,1.74,3.62,3.62,0,0,0,4.74-.45c.35-.46.31-.62-.23-1a2.44,2.44,0,0,1-1.61.75,1.15,1.15,0,0,1-1.28-.88A5.24,5.24,0,0,1,24.5,30c0-1.72,0-3.44,0-5.16a4.63,4.63,0,0,1,.05-.51l3.07.2.16-1.42H24.48V20c-.2,0-.33,0-.45,0s-.28,0-.47,0c-.35,1.8-1.08,3.3-3.11,3.62v.75Z"/></svg>