<svg id="Layer_1" data-name="Layer 1" xmlns="http://www.w3.org/2000/svg" viewBox="0 0 54 54"><path d="M27,0c-7.33,0-8.25,0-11.13.16A19.73,19.73,0,0,0,9.31,1.42,13.27,13.27,0,0,0,4.53,4.53,13.27,13.27,0,0,0,1.42,9.31,19.73,19.73,0,0,0,.16,15.87C0,18.75,0,19.67,0,27s0,8.25.16,11.13a19.73,19.73,0,0,0,1.26,6.56,13.27,13.27,0,0,0,3.11,4.78,13.27,13.27,0,0,0,4.78,3.11,19.73,19.73,0,0,0,6.56,1.26C18.75,54,19.67,54,27,54s8.25,0,11.13-.16a19.73,19.73,0,0,0,6.56-1.26,13.77,13.77,0,0,0,7.89-7.89,19.73,19.73,0,0,0,1.26-6.56C54,35.25,54,34.33,54,27s0-8.25-.16-11.13a19.73,19.73,0,0,0-1.26-6.56,13.27,13.27,0,0,0-3.11-4.78,13.27,13.27,0,0,0-4.78-3.11A19.73,19.73,0,0,0,38.13.16C35.25,0,34.33,0,27,0Zm0,4.86c7.21,0,8.06,0,10.91.16a14.91,14.91,0,0,1,5,.93,8.92,8.92,0,0,1,5.13,5.13,14.91,14.91,0,0,1,.93,5c.13,2.85.16,3.7.16,10.91s0,8.06-.16,10.91a14.91,14.91,0,0,1-.93,5,8.92,8.92,0,0,1-5.13,5.13,14.91,14.91,0,0,1-5,.93c-2.85.13-3.7.16-10.91.16s-8.06,0-10.91-.16a14.91,14.91,0,0,1-5-.93A8.92,8.92,0,0,1,6,42.92a14.91,14.91,0,0,1-.93-5c-.13-2.85-.16-3.7-.16-10.91s0-8.06.16-10.91a14.91,14.91,0,0,1,.93-5A8.92,8.92,0,0,1,11.08,6a14.91,14.91,0,0,1,5-.93c2.85-.13,3.7-.16,10.91-.16"/><path d="M27,36a9,9,0,1,1,9-9,9,9,0,0,1-9,9Zm0-22.86A13.86,13.86,0,1,0,40.86,27,13.85,13.85,0,0,0,27,13.14Z"/><path d="M44.65,12.59a3.24,3.24,0,1,1-3.24-3.24,3.24,3.24,0,0,1,3.24,3.24Z"/></svg>