<svg id="Layer_1" data-name="Layer 1" xmlns="http://www.w3.org/2000/svg" viewBox="0 0 46.39 60.94"><path d="M6.5,36.4c0-.28.08-.36.28-.68L22.05,13.35H8.45c-.67,0-.83-.16-.83-.84V10.08c0-.64.16-.84.83-.84H29c.28,0,.36.08.36.36V10c0,.24-.08.31-.32.67L13.84,33H28c.64,0,.84.19.84.87v2.44c0,.63-.2.83-.84.83H6.82c-.24,0-.32-.08-.32-.36Z"/><path d="M31.16,36.79c0-.12,0-.15.16-.35l4.82-6.35c1.4-1.83.8-3.35-.63-3.35a3.41,3.41,0,0,0-2.6,1.12c-.12.12-.2.16-.28.16s-.24-.12-.36-.24L31.2,26.63c-.16-.2-.24-.36,0-.56a6,6,0,0,1,4.31-1.8c3.74,0,4.94,3.35,3.14,6l-3,4.27h3.79c.36,0,.44.08.44.4v1.75c0,.32-.12.44-.44.44H31.28c-.08,0-.12,0-.12-.16Z"/><path d="M0,52.52c0-.12.05-.17.17-.17H3.11a4.22,4.22,0,0,1,0,8.43H.17c-.11,0-.17,0-.17-.17ZM3.09,60.1a3.53,3.53,0,0,0,0-7.06H.78V60.1Z"/><path d="M9.55,52.52c0-.12,0-.17.16-.17h5.34c.12,0,.16,0,.16.17v.37c0,.12,0,.15-.16.15H10.33v3.13h4.51c.12,0,.16,0,.16.17v.36c0,.13,0,.17-.16.17H10.33v3.21h4.72c.12,0,.16.05.16.17v.36c0,.14,0,.17-.16.17H9.71c-.12,0-.16,0-.16-.17Z"/><path d="M17.38,59.43c.05-.07.07-.1.12-.1a.34.34,0,0,1,.12,0,4.89,4.89,0,0,0,2.73.85c1.15,0,2.41-.38,2.41-1.75,0-1-.93-1.41-2.57-1.64-1.32-.18-2.87-.56-2.87-2.13,0-.89.68-2.48,3-2.48a5.21,5.21,0,0,1,3,.92c.11.07.1.13.05.23l-.18.31c0,.07-.07.11-.13.11a.19.19,0,0,1-.11,0,4.42,4.42,0,0,0-2.48-.83c-1.93,0-2.36,1.12-2.36,1.76,0,1.06,1.22,1.32,2.58,1.5,1.56.21,2.86.7,2.86,2.25,0,1.28-1,2.48-3.05,2.48A5.44,5.44,0,0,1,17.24,60c-.1-.07-.11-.12,0-.24Z"/><path d="M26.21,60.78c-.13,0-.17,0-.17-.17V52.52c0-.13,0-.17.17-.17h.44c.14,0,.17,0,.17.17v8.09c0,.14,0,.17-.17.17Z"/><path d="M33.55,56.61c0-.14,0-.17.17-.17h3.12c.13,0,.16,0,.16.17v2.63a.52.52,0,0,1-.2.43,4.74,4.74,0,0,1-3.23,1.27,4.37,4.37,0,0,1,0-8.74,4.82,4.82,0,0,1,3.15,1.21c.1.1.07.15,0,.25l-.3.32a.22.22,0,0,1-.12.06.19.19,0,0,1-.14-.06,3.9,3.9,0,0,0-2.58-1.08,3.67,3.67,0,0,0,0,7.34,3.94,3.94,0,0,0,2.64-1V57.13H33.72c-.12,0-.17,0-.17-.16Z"/><path d="M39.61,52.3c0-.09,0-.1.11-.1h.05a.18.18,0,0,1,.15.07l5.69,7V52.52c0-.14,0-.17.17-.17h.44c.14,0,.17,0,.17.17v8.32c0,.09,0,.1-.09.1h0a.22.22,0,0,1-.17-.1L40.4,53.78v6.83c0,.14,0,.17-.17.17h-.46c-.12,0-.16,0-.16-.17Z"/><path d="M46.39,46.39H0V0H46.39ZM2,44.39H44.39V2H2Z"/></svg>