<svg id="Layer_1" data-name="Layer 1" xmlns="http://www.w3.org/2000/svg" viewBox="0 0 46.39 60.94"><path d="M6.5,36.4c0-.28.08-.36.28-.68L22.05,13.35H8.45c-.67,0-.83-.16-.83-.84V10.08c0-.64.16-.84.83-.84H29c.28,0,.36.08.36.36V10c0,.24-.08.31-.32.67L13.84,33H28c.64,0,.84.19.84.87v2.44c0,.63-.2.83-.84.83H6.82c-.24,0-.32-.08-.32-.36Z"/><path d="M31.16,36.79c0-.12,0-.15.16-.35l4.82-6.35c1.4-1.83.8-3.35-.63-3.35a3.41,3.41,0,0,0-2.6,1.12c-.12.12-.2.16-.28.16s-.24-.12-.36-.24L31.2,26.63c-.16-.2-.24-.36,0-.56a6,6,0,0,1,4.31-1.8c3.74,0,4.94,3.35,3.14,6l-3,4.27h3.79c.36,0,.44.08.44.4v1.75c0,.32-.12.44-.44.44H31.28c-.08,0-.12,0-.12-.16Z"/><path d="M46.39,46.39H0V0H46.39ZM2,44.39H44.39V2H2Z"/><path d="M0,51.9c0-.16.05-.21.2-.21H3.32a4.46,4.46,0,0,1,0,8.92H.2c-.14,0-.2,0-.2-.21Zm3.31,7.84a3.59,3.59,0,0,0,0-7.18H1v7.18Z"/><path d="M9.55,51.9c0-.16,0-.21.2-.21h5.67c.14,0,.19.05.19.21v.47c0,.15,0,.2-.19.2H10.55v3.1h4.64c.15,0,.2,0,.2.2v.47c0,.15-.05.21-.2.21H10.55v3.18h4.87c.15,0,.19.05.19.2v.47c0,.16,0,.21-.19.21H9.75c-.15,0-.2,0-.2-.21Z"/><path d="M17.36,59.08c.05-.09.09-.13.15-.13a.34.34,0,0,1,.14,0,5.19,5.19,0,0,0,2.83.86c1.17,0,2.4-.38,2.4-1.71,0-1.06-1-1.4-2.63-1.63-1.39-.19-3-.61-3-2.31,0-1,.73-2.66,3.2-2.66a5.52,5.52,0,0,1,3.14,1c.14.08.11.15.06.28l-.24.39c-.05.09-.1.14-.16.14a.19.19,0,0,1-.12,0,4.59,4.59,0,0,0-2.55-.84c-1.93,0-2.35,1.09-2.35,1.75,0,1,1.18,1.31,2.58,1.49,1.65.22,3.05.73,3.05,2.43,0,1.37-1.06,2.64-3.25,2.64a5.83,5.83,0,0,1-3.44-1c-.13-.08-.13-.14-.05-.28Z"/><path d="M26.06,60.61c-.15,0-.2,0-.2-.21V51.9c0-.16.05-.21.2-.21h.62c.15,0,.19.05.19.21v8.5c0,.16,0,.21-.19.21Z"/><path d="M33.35,56.16c0-.15,0-.2.19-.2h3.25c.17,0,.21.06.21.2V59a.59.59,0,0,1-.21.46,5.1,5.1,0,0,1-3.42,1.34,4.63,4.63,0,0,1,0-9.25,4.91,4.91,0,0,1,3.32,1.3c.12.11.09.16,0,.28l-.38.42a.2.2,0,0,1-.3,0,3.91,3.91,0,0,0-2.63-1.11,3.74,3.74,0,0,0,0,7.46,3.93,3.93,0,0,0,2.62-1V56.84H33.54c-.14,0-.19,0-.19-.19Z"/><path d="M39.1,51.63c0-.09,0-.1.12-.1h.06a.19.19,0,0,1,.17.08l5.93,7.09V51.9c0-.17.06-.21.21-.21h.61c.15,0,.19,0,.19.21v8.77c0,.09,0,.11-.1.11h-.06c-.07,0-.12,0-.2-.11l-5.92-7.12V60.4c0,.16,0,.21-.2.21h-.6c-.15,0-.21,0-.21-.21Z"/></svg>